<svg id="Layer_1" data-name="Layer 1" xmlns="http://www.w3.org/2000/svg" viewBox="0 0 776.36 901.58"><defs><style>.cls-1{fill:none;stroke-width:32px;}.cls-1,.cls-5{stroke:#0580d9;stroke-miterlimit:10;}.cls-2{fill:#0ac96a;}.cls-3{fill:#e8003d;opacity:0.77;}.cls-4,.cls-5{fill:#0580d9;}.cls-5{stroke-width:9px;}</style></defs><title>japc2</title><path class="cls-1" d="M982.07,602.11,324,653c-30.73,2.38-56.17-22.57-56.17-55.78V113.43c0-33.2,25.44-56.28,56.17-51.64l658.08,99.32c16.75,2.53,30.11,23.89,30.11,47.75V556.57C1012.18,580.43,998.82,600.81,982.07,602.11Z" transform="translate(-251.82 -45.19)"/><path class="cls-2" d="M899.68,552.49l-517.3,25.63c-30.76,1.52-56.25-22.59-56.25-53.89V213.31c0-31.3,25.49-53.76,56.25-50.24l517.3,59.18c19.06,2.18,34.24,23.33,34.24,47.28v237.9C933.92,531.38,918.74,551.54,899.68,552.49Z" transform="translate(-251.82 -45.19)"/><path class="cls-3" d="M951.09,519l-488,16.49c-28.82,1-52.69-22.77-52.69-53.06V181.66c0-30.28,23.87-51.72,52.69-48l488,63.52c18.1,2.35,32.53,23.16,32.53,46.51V475.64C983.62,499,969.19,518.4,951.09,519Z" transform="translate(-251.82 -45.19)"/><path class="cls-4" d="M924.63,697.42,571.45,760.2c-23.78,4.22-59.06-2.24-79.45-15.78l-84.82-56.35,543.61-47.68-3.56,31.84C945.85,684.5,935.94,695.41,924.63,697.42Z" transform="translate(-251.82 -45.19)"/><path class="cls-5" d="M424.78,942.28q-23.64,0-36.47-12.94t-12.85-36.28h26.86q0,11.72,6,18.21t16.95,6.5q11,0,17-6.45t6-18.26V801.65H474.1v91.41q0,23.43-13,36.33T424.78,942.28Zm-8.2-116.9V801.65h45.5v23.73Z" transform="translate(-251.82 -45.19)"/><path class="cls-5" d="M513.25,940.32l40-138.67h31.64l40,138.67H597.13L570,835.54h-1.76L541.08,940.32Zm20.21-26.27V890.23h70.31v23.82Z" transform="translate(-251.82 -45.19)"/><path class="cls-5" d="M666.26,940.32V801.65h25.79V940.32Zm23.44-39.74V876.85h19q12.78,0,19.77-7t7-19.63q0-11.91-7-18.36t-19.77-6.45H690.09V801.65h18.66q26.07,0,40.33,12.26t14.25,34.62q0,24.79-14.25,38.43t-40.33,13.62Z" transform="translate(-251.82 -45.19)"/><path class="cls-5" d="M867.13,942.28q-66.3,0-66.3-71.49,0-33.88,16.69-52.49t47.27-18.6a62.92,62.92,0,0,1,24.41,4.44q10.65,4.46,16.12,12.65l-14.46,18.94a29,29,0,0,0-11.18-8.44,36.06,36.06,0,0,0-14.69-3q-16.8,0-26.91,11.86T828,869.82q0,47.85,42.48,47.85a70.85,70.85,0,0,0,27.93-5.86l4.5,23.83A97.51,97.51,0,0,1,867.13,942.28Z" transform="translate(-251.82 -45.19)"/></svg>