<svg version="1.1" id="Layer_1" xmlns="http://www.w3.org/2000/svg" xmlns:xlink="http://www.w3.org/1999/xlink" x="0px" y="0px"
	 width="100%" viewBox="0 0 500 500" enable-background="new 0 0 500 500" xml:space="preserve">
<path fill="#27E86B" opacity="1.000000" stroke="none" 
	d="
M346.000000,501.000000 
	C230.666687,501.000000 115.833389,501.000000 1.000062,501.000000 
	C1.000041,334.333405 1.000041,167.666794 1.000021,1.000151 
	C167.666550,1.000101 334.333099,1.000101 500.999756,1.000050 
	C500.999817,167.666519 500.999817,334.333038 500.999908,500.999786 
	C449.500000,501.000000 398.000000,501.000000 346.000000,501.000000 
M148.619095,422.072327 
	C116.415443,422.121735 84.211792,422.171143 52.008137,422.220551 
	C52.015450,422.695160 52.022766,423.169739 52.030083,423.644318 
	C56.169308,425.719910 339.063995,425.409698 342.768921,422.645813 
	C339.938568,422.436462 337.921234,422.157806 335.903778,422.156952 
	C280.253448,422.133331 224.603149,422.140533 168.952835,422.128967 
	C166.623825,422.128510 164.294861,421.997040 162.553070,421.397736 
	C167.916702,418.960724 169.982941,414.643250 169.895172,408.934845 
	C169.792816,402.277405 169.954803,395.615509 169.816864,388.959351 
	C169.782715,387.311035 169.033218,385.677521 168.612564,384.037231 
	C167.151489,384.897736 165.690414,385.758209 164.039917,386.730286 
	C157.007080,382.295105 151.513458,382.345062 146.908920,387.129761 
	C142.324814,391.893280 141.287598,400.283325 145.537552,405.501434 
	C147.640900,408.083954 151.239273,410.422668 154.440002,410.867950 
	C157.746124,411.327911 161.390411,409.357208 164.838211,408.462433 
	C165.205261,414.727692 163.146378,418.461060 157.909760,418.675201 
	C154.672485,418.807648 151.368942,417.090179 148.078506,416.269958 
	C146.842270,415.961823 145.559036,415.842346 144.297226,415.636871 
	C144.153992,416.225372 144.010757,416.813904 143.867508,417.402435 
	C145.787003,418.910522 147.706497,420.418610 148.619095,422.072327 
M31.849388,286.595490 
	C42.099964,306.886627 57.617756,321.637878 78.720932,330.100555 
	C109.689560,342.519470 141.368958,342.811401 173.263657,334.256073 
	C191.710083,329.308014 207.527573,319.805450 219.908920,305.021759 
	C236.313629,285.434174 242.491455,262.102112 242.870773,237.323410 
	C243.510803,195.516190 243.075851,153.693069 243.253632,111.877319 
	C243.270737,107.854866 241.956512,106.839218 238.104340,106.867119 
	C216.113937,107.026413 194.120514,107.067024 172.131210,106.844078 
	C167.512955,106.797249 166.119232,108.210403 166.169937,112.771858 
	C166.377411,131.429062 166.300659,150.090042 166.242691,168.749390 
	C166.171280,191.736343 166.248245,214.727753 165.785446,237.707642 
	C165.585358,247.643311 162.910721,257.124969 156.601196,265.197510 
	C144.302582,280.932617 112.031754,280.462097 101.775230,257.361694 
	C99.880829,249.154572 97.684425,241.000275 96.235298,232.715271 
	C95.624710,229.224380 94.624481,227.683746 91.018883,227.795731 
	C85.699013,227.960983 80.369987,227.828094 75.044861,227.828400 
	C58.237389,227.829346 41.429920,227.833008 24.622448,227.836151 
	C21.844769,227.836685 19.108147,227.774109 19.318277,231.852081 
	C20.283318,250.580338 22.985779,268.906738 31.849388,286.595490 
M250.866669,276.974152 
	C250.880310,295.136688 250.955444,313.299591 250.856995,331.461517 
	C250.836716,335.204285 251.995544,336.919434 255.988174,336.901031 
	C278.316010,336.798126 300.644775,336.809753 322.972717,336.897064 
	C326.599884,336.911255 328.063110,335.534180 328.028870,331.893341 
	C327.906616,318.899567 327.944977,305.904297 327.979889,291.985107 
	C327.989014,280.490692 328.172668,268.992340 327.915283,257.503906 
	C327.821655,253.324783 329.117065,252.135452 333.258728,252.168182 
	C356.079803,252.348541 378.903015,252.229324 401.725464,252.260452 
	C423.060577,252.289551 442.334381,246.626785 459.094269,232.831345 
	C495.837585,202.587051 488.567841,151.106506 466.670898,128.222580 
	C452.128326,113.024498 433.472687,107.363716 413.287872,107.200371 
	C360.649719,106.774437 308.005798,107.087708 255.364380,106.991348 
	C251.792206,106.984810 250.808380,108.239403 250.814621,111.627335 
	C250.915573,166.433563 250.924606,221.239990 250.866669,276.974152 
M248.783554,390.115570 
	C250.226746,381.947113 247.154999,375.365082 240.539856,374.449677 
	C234.899612,373.669189 229.065674,374.288361 223.185440,374.288361 
	C223.185440,386.682678 223.185440,398.603058 223.185440,410.721527 
	C224.540985,410.721527 226.578247,410.881073 226.609482,410.698090 
	C227.311279,406.588043 227.792603,402.440338 228.371811,397.854248 
	C231.338196,397.854248 234.136475,397.831635 236.934265,397.859100 
	C242.259445,397.911346 246.285263,395.865662 248.783554,390.115570 
M320.808685,397.638916 
	C320.806335,396.974060 320.815216,396.308929 320.799835,395.644348 
	C320.696045,391.145691 319.923096,386.903107 315.344635,384.722321 
	C310.448608,382.390320 305.608673,383.181335 301.023804,385.685669 
	C300.287781,386.087677 300.037048,387.378235 299.562012,388.258118 
	C300.559784,388.366302 301.603943,388.710205 302.544037,388.525208 
	C303.824127,388.273315 304.987183,387.449249 306.265900,387.163788 
	C312.661987,385.735626 316.172394,388.837219 315.509125,395.403809 
	C313.735413,395.203278 311.963226,394.866669 310.186127,394.838440 
	C308.204376,394.807007 306.158569,394.795532 304.245697,395.233948 
	C299.450623,396.332886 296.597900,400.009216 297.102356,404.039886 
	C297.643219,408.361694 301.478577,411.806458 306.289917,411.378510 
	C309.625305,411.081879 312.857483,409.625122 316.153717,408.681580 
	C317.534302,409.486206 319.297333,410.513672 321.914520,412.038971 
	C321.470428,406.629181 321.139771,402.601166 320.808685,397.638916 
M375.561737,410.139313 
	C381.331360,412.592255 386.681152,411.927277 391.166412,407.487091 
	C395.324371,403.370972 396.219543,398.183563 394.430511,392.755585 
	C392.675262,387.430206 388.782379,384.271179 383.158295,383.491150 
	C377.090668,382.649658 371.351288,386.152130 368.927856,392.077209 
	C366.259583,398.600830 368.419220,405.032837 375.561737,410.139313 
M179.430313,406.995880 
	C187.177750,413.750519 196.786880,412.849976 200.426086,404.362000 
	C198.596115,404.606659 196.865891,405.154541 195.426956,406.131470 
	C189.225571,410.341675 182.345810,407.192505 181.244308,398.948608 
	C188.505661,398.948608 195.699371,398.948608 202.827072,398.948608 
	C203.492783,389.015503 196.764908,382.311890 188.009109,383.503052 
	C176.198120,385.109863 172.512085,398.728058 179.430313,406.995880 
M93.902634,403.429810 
	C97.987381,410.385132 103.729416,412.976227 110.477402,410.909210 
	C116.494804,409.065948 120.510109,402.846466 119.984596,396.182983 
	C119.467285,389.623444 114.501862,384.380280 107.968933,383.495178 
	C97.726692,382.107544 90.830734,391.347961 93.902634,403.429810 
M252.687103,403.434814 
	C254.609833,412.206421 261.285370,413.865753 271.548370,408.053619 
	C272.283386,408.890228 272.882385,410.052521 273.822815,410.504852 
	C274.730133,410.941254 276.141632,410.965851 277.034729,410.543579 
	C277.527222,410.310638 277.621857,408.765472 277.529602,407.848755 
	C277.138947,403.966980 276.016846,400.064453 276.240295,396.232361 
	C277.026611,382.749420 264.775970,381.347046 256.986816,385.428955 
	C256.004486,385.943726 255.536423,387.439789 254.152863,389.479736 
	C268.394165,385.679169 272.559204,387.382690 270.589722,394.899445 
	C267.548676,394.899445 264.532288,394.615967 261.590912,394.964844 
	C257.005035,395.508789 253.232193,397.349762 252.687103,403.434814 
M408.972931,383.490753 
	C408.159088,383.660095 407.327667,383.770752 406.534424,384.008789 
	C402.786957,385.133362 400.537567,387.646057 400.363953,391.559296 
	C400.178436,395.741241 403.222839,397.177277 406.623596,398.124054 
	C409.023346,398.792236 411.571960,399.173126 413.757782,400.271851 
	C415.129822,400.961487 417.039062,403.051910 416.779083,403.964539 
	C416.343170,405.494476 414.377136,407.639923 413.038849,407.651428 
	C409.845734,407.678925 406.654144,406.545410 403.439026,406.021393 
	C402.181702,405.816437 400.863007,405.987854 399.572266,405.987854 
	C404.187073,411.274719 411.496185,413.059296 416.225433,410.452667 
	C418.614441,409.135986 421.169769,405.999542 421.371185,403.502106 
	C421.534119,401.481842 418.668854,398.585968 416.449677,397.175232 
	C414.031158,395.637848 410.675171,395.654602 407.994110,394.417053 
	C406.667633,393.804840 405.033661,391.782532 405.182434,390.606110 
	C405.347015,389.304901 407.366119,387.298676 408.622070,387.265167 
	C411.486969,387.188660 414.366333,388.230133 417.267639,388.597748 
	C418.179565,388.713287 419.180145,388.128845 420.140167,387.864777 
	C419.715424,387.080841 419.445923,385.783203 418.839600,385.599945 
	C415.863220,384.700348 412.797302,384.096985 408.972931,383.490753 
M330.347168,407.130798 
	C338.105988,413.697021 347.014099,412.862732 352.241638,403.666046 
	C349.380035,404.430786 347.448120,404.511383 346.030457,405.406464 
	C341.504974,408.263733 337.053528,408.024475 333.928467,404.388794 
	C330.661041,400.587585 330.579620,394.332977 333.748535,390.572723 
	C336.820038,386.928070 341.345001,386.649200 345.816467,389.434723 
	C347.200073,390.296692 349.146027,390.255859 350.834503,390.628387 
	C351.103180,389.929962 351.371826,389.231537 351.640472,388.533142 
	C349.236084,387.002869 347.010254,384.958801 344.390442,384.048187 
	C338.758850,382.090820 332.668640,384.301514 329.299011,388.907715 
	C325.664825,393.875641 325.877228,400.349670 330.347168,407.130798 
M78.416656,411.086975 
	C83.296730,409.861145 85.703629,406.313538 86.009361,401.703522 
	C86.558334,393.425720 86.712822,385.112366 86.668175,376.815826 
	C86.662254,375.714935 84.527649,374.625488 83.378868,373.530731 
	C82.873100,373.881775 82.367332,374.232819 81.861565,374.583862 
	C81.861565,382.364960 82.141197,390.158936 81.784813,397.923676 
	C81.410408,406.081116 77.864868,408.475494 69.943062,406.657196 
	C69.164200,406.478424 68.404480,406.216278 67.635880,405.992828 
	C67.238632,406.303009 66.841385,406.613220 66.444138,406.923431 
	C67.228401,408.173615 67.816040,410.276215 68.834488,410.511139 
	C71.673637,411.166016 74.691399,411.046509 78.416656,411.086975 
M290.401154,411.269104 
	C291.907990,410.574860 293.414825,409.880615 294.921661,409.186340 
	C293.739014,408.442932 292.299500,407.917480 291.437469,406.901947 
	C290.312500,405.576538 288.944397,403.883850 288.897461,402.312836 
	C288.645081,393.866241 288.709106,385.407684 288.796387,376.954681 
	C288.829102,373.787903 287.985077,372.132782 284.041626,373.600433 
	C284.041626,384.375793 283.947815,395.280029 284.098267,406.180908 
	C284.143921,409.489380 286.291687,411.214905 290.401154,411.269104 
M446.153351,422.139435 
	C425.403625,422.207397 404.653870,422.273315 383.904266,422.367737 
	C383.660065,422.368866 383.397797,422.718781 383.182739,422.943054 
	C383.077850,423.052460 383.031128,423.244659 383.015717,423.404968 
	C383.001007,423.557831 383.061218,423.717926 383.174164,424.367462 
	C405.360138,424.367462 427.631195,424.367462 449.902283,424.367462 
	C449.986328,423.927307 450.070404,423.487152 450.154480,423.046967 
	C449.127594,422.746124 448.100739,422.445282 446.153351,422.139435 
M138.395828,388.074768 
	C139.115341,386.887054 139.834869,385.699341 140.554382,384.511627 
	C140.052780,384.053070 139.551178,383.594543 139.049576,383.135986 
	C136.162720,384.715820 133.275864,386.295654 131.395050,387.324951 
	C129.779114,385.931915 128.459076,384.793945 126.160439,382.812347 
	C126.160439,393.276367 126.160439,401.868164 126.160439,410.504242 
	C129.245728,411.622742 130.728088,410.890930 130.617310,407.577057 
	C130.517456,404.590118 130.813629,401.579407 130.564072,398.610382 
	C130.101318,393.105072 132.439789,389.716583 138.395828,388.074768 
M362.179626,404.380798 
	C362.169617,398.416840 362.247681,392.449951 362.050720,386.492157 
	C362.022522,385.639008 360.665436,384.829803 359.923309,384.000275 
	C359.225067,384.705139 357.933563,385.398712 357.919891,386.116608 
	C357.774841,393.733887 357.777405,401.356140 357.931763,408.973145 
	C357.945312,409.641205 359.336578,410.807922 360.058624,410.785828 
	C360.769623,410.764069 361.764099,409.633759 362.051788,408.791016 
	C362.407867,407.747894 362.164062,406.500031 362.179626,404.380798 
z"/>
<path fill="#262625" opacity="1.000000" stroke="none" 
	d="
M250.954453,276.046356 
	C250.924606,221.239990 250.915573,166.433563 250.814621,111.627335 
	C250.808380,108.239403 251.792206,106.984810 255.364380,106.991348 
	C308.005798,107.087708 360.649719,106.774437 413.287872,107.200371 
	C433.472687,107.363716 452.128326,113.024498 466.670898,128.222580 
	C488.567841,151.106506 495.837585,202.587051 459.094269,232.831345 
	C442.334381,246.626785 423.060577,252.289551 401.725464,252.260452 
	C378.903015,252.229324 356.079803,252.348541 333.258728,252.168182 
	C329.117065,252.135452 327.821655,253.324783 327.915283,257.503906 
	C328.172668,268.992340 327.989014,280.490692 327.688232,292.256714 
	C326.408142,291.200104 325.427032,289.866425 324.430298,288.544495 
	C312.523743,272.753387 296.880585,265.270233 276.965607,266.783203 
	C267.379974,267.511444 259.219849,271.828491 250.954453,276.046356 
M406.858521,173.957779 
	C404.458008,169.099533 400.149567,167.865753 395.216949,167.863739 
	C374.091492,167.855103 352.966034,167.852646 331.840576,167.872894 
	C330.727142,167.873962 329.613861,168.103958 328.005066,168.282318 
	C328.005066,174.491425 328.211365,180.447815 327.930359,186.381134 
	C327.752045,190.145721 329.036926,191.183411 332.747192,191.153687 
	C353.372284,190.988449 373.999451,191.089249 394.625854,191.066742 
	C404.867157,191.055557 409.676270,184.742752 406.858521,173.957779 
z"/>
<path fill="#262625" opacity="1.000000" stroke="none" 
	d="
M101.931427,258.070526 
	C112.031754,280.462097 144.302582,280.932617 156.601196,265.197510 
	C162.910721,257.124969 165.585358,247.643311 165.785446,237.707642 
	C166.248245,214.727753 166.171280,191.736343 166.242691,168.749390 
	C166.300659,150.090042 166.377411,131.429062 166.169937,112.771858 
	C166.119232,108.210403 167.512955,106.797249 172.131210,106.844078 
	C194.120514,107.067024 216.113937,107.026413 238.104340,106.867119 
	C241.956512,106.839218 243.270737,107.854866 243.253632,111.877319 
	C243.075851,153.693069 243.510803,195.516190 242.870773,237.323410 
	C242.491455,262.102112 236.313629,285.434174 219.908920,305.021759 
	C207.527573,319.805450 191.710083,329.308014 173.263657,334.256073 
	C141.368958,342.811401 109.689560,342.519470 78.720932,330.100555 
	C57.617756,321.637878 42.099964,306.886627 32.112328,286.310791 
	C33.172359,286.251160 33.977734,286.450592 34.765339,286.705017 
	C61.246128,295.259003 85.512367,285.625305 99.080467,261.234039 
	C99.753014,260.025024 100.968674,259.118103 101.931427,258.070526 
z"/>
<path fill="#278648" opacity="1.000000" stroke="none" 
	d="
M250.910553,276.510254 
	C259.219849,271.828491 267.379974,267.511444 276.965607,266.783203 
	C296.880585,265.270233 312.523743,272.753387 324.430298,288.544495 
	C325.427032,289.866425 326.408142,291.200104 327.659546,292.718933 
	C327.944977,305.904297 327.906616,318.899567 328.028870,331.893341 
	C328.063110,335.534180 326.599884,336.911255 322.972717,336.897064 
	C300.644775,336.809753 278.316010,336.798126 255.988174,336.901031 
	C251.995544,336.919434 250.836716,335.204285 250.856995,331.461517 
	C250.955444,313.299591 250.880310,295.136688 250.910553,276.510254 
z"/>
<path fill="#278648" opacity="1.000000" stroke="none" 
	d="
M101.853333,257.716125 
	C100.968674,259.118103 99.753014,260.025024 99.080467,261.234039 
	C85.512367,285.625305 61.246128,295.259003 34.765339,286.705017 
	C33.977734,286.450592 33.172359,286.251160 31.962229,285.969086 
	C22.985779,268.906738 20.283318,250.580338 19.318277,231.852081 
	C19.108147,227.774109 21.844769,227.836685 24.622448,227.836151 
	C41.429920,227.833008 58.237389,227.829346 75.044861,227.828400 
	C80.369987,227.828094 85.699013,227.960983 91.018883,227.795731 
	C94.624481,227.683746 95.624710,229.224380 96.235298,232.715271 
	C97.684425,241.000275 99.880829,249.154572 101.853333,257.716125 
z"/>
<path fill="#B84BD3" opacity="1.000000" stroke="none" 
	d="
M161.965866,421.926605 
	C164.294861,421.997040 166.623825,422.128510 168.952835,422.128967 
	C224.603149,422.140533 280.253448,422.133331 335.903778,422.156952 
	C337.921234,422.157806 339.938568,422.436462 342.768921,422.645813 
	C339.063995,425.409698 56.169308,425.719910 52.030083,423.644318 
	C52.022766,423.169739 52.015450,422.695160 52.008137,422.220551 
	C84.211792,422.171143 116.415443,422.121735 149.531677,422.057495 
	C154.284790,422.003967 158.125320,421.965271 161.965866,421.926605 
z"/>
<path fill="#263029" opacity="1.000000" stroke="none" 
	d="
M162.259460,421.662170 
	C158.125320,421.965271 154.284790,422.003967 150.035110,421.984680 
	C147.706497,420.418610 145.787003,418.910522 143.867508,417.402435 
	C144.010757,416.813904 144.153992,416.225372 144.297226,415.636871 
	C145.559036,415.842346 146.842270,415.961823 148.078506,416.269958 
	C151.368942,417.090179 154.672485,418.807648 157.909760,418.675201 
	C163.146378,418.461060 165.205261,414.727692 164.838211,408.462433 
	C161.390411,409.357208 157.746124,411.327911 154.440002,410.867950 
	C151.239273,410.422668 147.640900,408.083954 145.537552,405.501434 
	C141.287598,400.283325 142.324814,391.893280 146.908920,387.129761 
	C151.513458,382.345062 157.007080,382.295105 164.039917,386.730286 
	C165.690414,385.758209 167.151489,384.897736 168.612549,384.037231 
	C169.033218,385.677521 169.782715,387.311035 169.816864,388.959351 
	C169.954803,395.615509 169.792816,402.277405 169.895172,408.934845 
	C169.982941,414.643250 167.916702,418.960724 162.259460,421.662170 
M163.133499,390.634674 
	C158.244781,386.603546 153.838699,386.452728 150.427521,390.199860 
	C146.826019,394.156036 146.904434,401.040314 150.593399,404.761322 
	C154.913101,409.118561 163.364532,407.874390 164.577744,402.260803 
	C165.324448,398.805847 164.040863,394.912079 163.133499,390.634674 
z"/>
<path fill="#263029" opacity="1.000000" stroke="none" 
	d="
M248.629654,390.459595 
	C246.285263,395.865662 242.259445,397.911346 236.934265,397.859100 
	C234.136475,397.831635 231.338196,397.854248 228.371811,397.854248 
	C227.792603,402.440338 227.311279,406.588043 226.609482,410.698090 
	C226.578247,410.881073 224.540985,410.721527 223.185440,410.721527 
	C223.185440,398.603058 223.185440,386.682678 223.185440,374.288361 
	C229.065674,374.288361 234.899612,373.669189 240.539856,374.449677 
	C247.154999,375.365082 250.226746,381.947113 248.629654,390.459595 
M243.715271,390.094604 
	C245.386627,386.391876 245.577316,381.968445 242.035019,380.269928 
	C238.293396,378.475891 233.495178,378.831207 229.140381,378.460175 
	C228.736816,378.425812 227.828476,379.908875 227.793808,380.714844 
	C227.643875,384.201447 227.640488,387.702576 227.803726,391.188080 
	C227.839859,391.959625 228.780304,393.343994 229.287872,393.336395 
	C234.083130,393.265167 239.351669,395.424927 243.715271,390.094604 
z"/>
<path fill="#26332A" opacity="1.000000" stroke="none" 
	d="
M320.808899,398.106018 
	C321.139771,402.601166 321.470428,406.629181 321.914520,412.038971 
	C319.297333,410.513672 317.534302,409.486206 316.153717,408.681580 
	C312.857483,409.625122 309.625305,411.081879 306.289917,411.378510 
	C301.478577,411.806458 297.643219,408.361694 297.102356,404.039886 
	C296.597900,400.009216 299.450623,396.332886 304.245697,395.233948 
	C306.158569,394.795532 308.204376,394.807007 310.186127,394.838440 
	C311.963226,394.866669 313.735413,395.203278 315.509125,395.403809 
	C316.172394,388.837219 312.661987,385.735626 306.265900,387.163788 
	C304.987183,387.449249 303.824127,388.273315 302.544037,388.525208 
	C301.603943,388.710205 300.559784,388.366302 299.562012,388.258118 
	C300.037048,387.378235 300.287781,386.087677 301.023804,385.685669 
	C305.608673,383.181335 310.448608,382.390320 315.344635,384.722321 
	C319.923096,386.903107 320.696045,391.145691 320.799835,395.644348 
	C320.815216,396.308929 320.806335,396.974060 320.808899,398.106018 
M308.355743,407.964355 
	C312.571320,407.240692 316.764526,405.831085 315.828247,400.628265 
	C315.005676,396.057098 310.403503,397.349396 307.613525,397.905914 
	C305.393677,398.348694 302.344269,400.687103 301.907257,402.676880 
	C301.140228,406.169067 304.096863,407.825165 308.355743,407.964355 
z"/>
<path fill="#262F29" opacity="1.000000" stroke="none" 
	d="
M375.222687,409.977173 
	C368.419220,405.032837 366.259583,398.600830 368.927856,392.077209 
	C371.351288,386.152130 377.090668,382.649658 383.158295,383.491150 
	C388.782379,384.271179 392.675262,387.430206 394.430511,392.755585 
	C396.219543,398.183563 395.324371,403.370972 391.166412,407.487091 
	C386.681152,411.927277 381.331360,412.592255 375.222687,409.977173 
M390.440735,396.642853 
	C389.122681,390.431915 385.921753,387.247101 381.216919,387.465424 
	C376.923309,387.664642 373.429016,391.171417 372.833649,395.878723 
	C372.082092,401.820801 375.345734,406.690643 380.502014,407.321289 
	C385.883331,407.979462 389.380981,404.541534 390.440735,396.642853 
z"/>
<path fill="#262E28" opacity="1.000000" stroke="none" 
	d="
M179.196533,406.706451 
	C172.512085,398.728058 176.198120,385.109863 188.009109,383.503052 
	C196.764908,382.311890 203.492783,389.015503 202.827072,398.948608 
	C195.699371,398.948608 188.505661,398.948608 181.244308,398.948608 
	C182.345810,407.192505 189.225571,410.341675 195.426956,406.131470 
	C196.865891,405.154541 198.596115,404.606659 200.426086,404.362000 
	C196.786880,412.849976 187.177750,413.750519 179.196533,406.706451 
M195.418488,388.852631 
	C188.042191,384.845673 181.976135,387.508850 181.343460,395.350891 
	C187.057938,395.350891 192.744720,395.350891 199.538116,395.350891 
	C198.070190,392.852203 197.038605,391.096252 195.418488,388.852631 
z"/>
<path fill="#262F29" opacity="1.000000" stroke="none" 
	d="
M93.759995,403.077850 
	C90.830734,391.347961 97.726692,382.107544 107.968933,383.495178 
	C114.501862,384.380280 119.467285,389.623444 119.984596,396.182983 
	C120.510109,402.846466 116.494804,409.065948 110.477402,410.909210 
	C103.729416,412.976227 97.987381,410.385132 93.759995,403.077850 
M115.073799,399.133057 
	C115.108109,392.462097 112.745949,388.664062 107.931084,387.648529 
	C103.844772,386.786621 99.769257,389.209778 98.128403,393.476868 
	C96.071579,398.825714 98.511215,405.156128 103.303467,406.905029 
	C108.359344,408.750153 112.472855,406.299591 115.073799,399.133057 
z"/>
<path fill="#262F29" opacity="1.000000" stroke="none" 
	d="
M252.687408,403.072510 
	C253.232193,397.349762 257.005035,395.508789 261.590912,394.964844 
	C264.532288,394.615967 267.548676,394.899445 270.589722,394.899445 
	C272.559204,387.382690 268.394165,385.679169 254.152863,389.479736 
	C255.536423,387.439789 256.004486,385.943726 256.986816,385.428955 
	C264.775970,381.347046 277.026611,382.749420 276.240295,396.232361 
	C276.016846,400.064453 277.138947,403.966980 277.529602,407.848755 
	C277.621857,408.765472 277.527222,410.310638 277.034729,410.543579 
	C276.141632,410.965851 274.730133,410.941254 273.822815,410.504852 
	C272.882385,410.052521 272.283386,408.890228 271.548370,408.053619 
	C261.285370,413.865753 254.609833,412.206421 252.687408,403.072510 
M258.966095,406.685608 
	C259.697845,407.061768 260.576263,407.910400 261.137207,407.736267 
	C264.420929,406.716919 267.796570,405.753143 270.754913,404.085327 
	C271.552551,403.635620 271.317932,399.349792 271.031250,399.288605 
	C267.770111,398.592499 264.297333,397.689362 261.098541,398.200989 
	C257.020844,398.853180 256.314789,401.788879 258.966095,406.685608 
z"/>
<path fill="#26342A" opacity="1.000000" stroke="none" 
	d="
M409.367981,383.439880 
	C412.797302,384.096985 415.863220,384.700348 418.839600,385.599945 
	C419.445923,385.783203 419.715424,387.080841 420.140167,387.864777 
	C419.180145,388.128845 418.179565,388.713287 417.267639,388.597748 
	C414.366333,388.230133 411.486969,387.188660 408.622070,387.265167 
	C407.366119,387.298676 405.347015,389.304901 405.182434,390.606110 
	C405.033661,391.782532 406.667633,393.804840 407.994110,394.417053 
	C410.675171,395.654602 414.031158,395.637848 416.449677,397.175232 
	C418.668854,398.585968 421.534119,401.481842 421.371185,403.502106 
	C421.169769,405.999542 418.614441,409.135986 416.225433,410.452667 
	C411.496185,413.059296 404.187073,411.274719 399.572266,405.987854 
	C400.863007,405.987854 402.181702,405.816437 403.439026,406.021393 
	C406.654144,406.545410 409.845734,407.678925 413.038849,407.651428 
	C414.377136,407.639923 416.343170,405.494476 416.779083,403.964539 
	C417.039062,403.051910 415.129822,400.961487 413.757782,400.271851 
	C411.571960,399.173126 409.023346,398.792236 406.623596,398.124054 
	C403.222839,397.177277 400.178436,395.741241 400.363953,391.559296 
	C400.537567,387.646057 402.786957,385.133362 406.534424,384.008789 
	C407.327667,383.770752 408.159088,383.660095 409.367981,383.439880 
z"/>
<path fill="#263029" opacity="1.000000" stroke="none" 
	d="
M330.112762,406.846924 
	C325.877228,400.349670 325.664825,393.875641 329.299011,388.907715 
	C332.668640,384.301514 338.758850,382.090820 344.390442,384.048187 
	C347.010254,384.958801 349.236084,387.002869 351.640472,388.533142 
	C351.371826,389.231537 351.103180,389.929962 350.834503,390.628387 
	C349.146027,390.255859 347.200073,390.296692 345.816467,389.434723 
	C341.345001,386.649200 336.820038,386.928070 333.748535,390.572723 
	C330.579620,394.332977 330.661041,400.587585 333.928467,404.388794 
	C337.053528,408.024475 341.504974,408.263733 346.030457,405.406464 
	C347.448120,404.511383 349.380035,404.430786 352.241638,403.666046 
	C347.014099,412.862732 338.105988,413.697021 330.112762,406.846924 
z"/>
<path fill="#263129" opacity="1.000000" stroke="none" 
	d="
M78.027649,411.159882 
	C74.691399,411.046509 71.673637,411.166016 68.834488,410.511139 
	C67.816040,410.276215 67.228401,408.173615 66.444138,406.923431 
	C66.841385,406.613220 67.238632,406.303009 67.635880,405.992828 
	C68.404480,406.216278 69.164200,406.478424 69.943062,406.657196 
	C77.864868,408.475494 81.410408,406.081116 81.784813,397.923676 
	C82.141197,390.158936 81.861565,382.364960 81.861565,374.583862 
	C82.367332,374.232819 82.873100,373.881775 83.378868,373.530731 
	C84.527649,374.625488 86.662254,375.714935 86.668175,376.815826 
	C86.712822,385.112366 86.558334,393.425720 86.009361,401.703522 
	C85.703629,406.313538 83.296730,409.861145 78.027649,411.159882 
z"/>
<path fill="#26342A" opacity="1.000000" stroke="none" 
	d="
M290.025696,411.269104 
	C286.291687,411.214905 284.143921,409.489380 284.098267,406.180908 
	C283.947815,395.280029 284.041626,384.375793 284.041626,373.600433 
	C287.985077,372.132782 288.829102,373.787903 288.796387,376.954681 
	C288.709106,385.407684 288.645081,393.866241 288.897461,402.312836 
	C288.944397,403.883850 290.312500,405.576538 291.437469,406.901947 
	C292.299500,407.917480 293.739014,408.442932 294.921661,409.186340 
	C293.414825,409.880615 291.907990,410.574860 290.025696,411.269104 
z"/>
<path fill="#B84BD4" opacity="1.000000" stroke="none" 
	d="
M446.613586,422.141907 
	C448.100739,422.445282 449.127594,422.746124 450.154480,423.046967 
	C450.070404,423.487152 449.986328,423.927307 449.902283,424.367462 
	C427.631195,424.367462 405.360138,424.367462 383.174164,424.367462 
	C383.061218,423.717926 383.001007,423.557831 383.015717,423.404968 
	C383.031128,423.244659 383.077850,423.052460 383.182739,422.943054 
	C383.397797,422.718781 383.660065,422.368866 383.904266,422.367737 
	C404.653870,422.273315 425.403625,422.207397 446.613586,422.141907 
z"/>
<path fill="#263129" opacity="1.000000" stroke="none" 
	d="
M138.041260,388.149597 
	C132.439789,389.716583 130.101318,393.105072 130.564072,398.610382 
	C130.813629,401.579407 130.517456,404.590118 130.617310,407.577057 
	C130.728088,410.890930 129.245728,411.622742 126.160439,410.504242 
	C126.160439,401.868164 126.160439,393.276367 126.160439,382.812347 
	C128.459076,384.793945 129.779114,385.931915 131.395050,387.324951 
	C133.275864,386.295654 136.162720,384.715820 139.049576,383.135986 
	C139.551178,383.594543 140.052780,384.053070 140.554382,384.511627 
	C139.834869,385.699341 139.115341,386.887054 138.041260,388.149597 
z"/>
<path fill="#262525" opacity="1.000000" stroke="none" 
	d="
M362.179504,404.860718 
	C362.164062,406.500031 362.407867,407.747894 362.051788,408.791016 
	C361.764099,409.633759 360.769623,410.764069 360.058624,410.785828 
	C359.336578,410.807922 357.945312,409.641205 357.931763,408.973145 
	C357.777405,401.356140 357.774841,393.733887 357.919891,386.116608 
	C357.933563,385.398712 359.225067,384.705139 359.923309,384.000275 
	C360.665436,384.829803 362.022522,385.639008 362.050720,386.492157 
	C362.247681,392.449951 362.169617,398.416840 362.179504,404.860718 
z"/>
<path fill="#27E76B" opacity="1.000000" stroke="none" 
	d="
M407.014893,174.322388 
	C409.676270,184.742752 404.867157,191.055557 394.625854,191.066742 
	C373.999451,191.089249 353.372284,190.988449 332.747192,191.153687 
	C329.036926,191.183411 327.752045,190.145721 327.930359,186.381134 
	C328.211365,180.447815 328.005066,174.491425 328.005066,168.282318 
	C329.613861,168.103958 330.727142,167.873962 331.840576,167.872894 
	C352.966034,167.852646 374.091492,167.855103 395.216949,167.863739 
	C400.149567,167.865753 404.458008,169.099533 407.014893,174.322388 
z"/>
<path fill="#27E369" opacity="1.000000" stroke="none" 
	d="
M163.401184,390.924988 
	C164.040863,394.912079 165.324448,398.805847 164.577744,402.260803 
	C163.364532,407.874390 154.913101,409.118561 150.593399,404.761322 
	C146.904434,401.040314 146.826019,394.156036 150.427521,390.199860 
	C153.838699,386.452728 158.244781,386.603546 163.401184,390.924988 
z"/>
<path fill="#27DF68" opacity="1.000000" stroke="none" 
	d="
M243.501022,390.416077 
	C239.351669,395.424927 234.083130,393.265167 229.287872,393.336395 
	C228.780304,393.343994 227.839859,391.959625 227.803726,391.188080 
	C227.640488,387.702576 227.643875,384.201447 227.793808,380.714844 
	C227.828476,379.908875 228.736816,378.425812 229.140381,378.460175 
	C233.495178,378.831207 238.293396,378.475891 242.035019,380.269928 
	C245.577316,381.968445 245.386627,386.391876 243.501022,390.416077 
z"/>
<path fill="#27E269" opacity="1.000000" stroke="none" 
	d="
M307.952820,407.972778 
	C304.096863,407.825165 301.140228,406.169067 301.907257,402.676880 
	C302.344269,400.687103 305.393677,398.348694 307.613525,397.905914 
	C310.403503,397.349396 315.005676,396.057098 315.828247,400.628265 
	C316.764526,405.831085 312.571320,407.240692 307.952820,407.972778 
z"/>
<path fill="#27E369" opacity="1.000000" stroke="none" 
	d="
M390.468689,397.070068 
	C389.380981,404.541534 385.883331,407.979462 380.502014,407.321289 
	C375.345734,406.690643 372.082092,401.820801 372.833649,395.878723 
	C373.429016,391.171417 376.923309,387.664642 381.216919,387.465424 
	C385.921753,387.247101 389.122681,390.431915 390.468689,397.070068 
z"/>
<path fill="#27D865" opacity="1.000000" stroke="none" 
	d="
M195.712769,389.096497 
	C197.038605,391.096252 198.070190,392.852203 199.538116,395.350891 
	C192.744720,395.350891 187.057938,395.350891 181.343460,395.350891 
	C181.976135,387.508850 188.042191,384.845673 195.712769,389.096497 
z"/>
<path fill="#27E269" opacity="1.000000" stroke="none" 
	d="
M115.021935,399.543945 
	C112.472855,406.299591 108.359344,408.750153 103.303467,406.905029 
	C98.511215,405.156128 96.071579,398.825714 98.128403,393.476868 
	C99.769257,389.209778 103.844772,386.786621 107.931084,387.648529 
	C112.745949,388.664062 115.108109,392.462097 115.021935,399.543945 
z"/>
<path fill="#27DF68" opacity="1.000000" stroke="none" 
	d="
M258.679016,406.413147 
	C256.314789,401.788879 257.020844,398.853180 261.098541,398.200989 
	C264.297333,397.689362 267.770111,398.592499 271.031250,399.288605 
	C271.317932,399.349792 271.552551,403.635620 270.754913,404.085327 
	C267.796570,405.753143 264.420929,406.716919 261.137207,407.736267 
	C260.576263,407.910400 259.697845,407.061768 258.679016,406.413147 
z"/>
</svg>